# xmcd
#
# Track frame offsets:
#	150
#	16357
#	32899
#	43754
#	56578
#	74285
#	90990
#	105502
#	122336
#	143508
#	159163
#	176965
#	195082
#	216139
#	233508
#	247740
#	263757
#	281634
#	296554
#
# Disc length: 4229 seconds
#
# Revision: 0
# Processed by: cddbd v1.4PL0 Copyright (c) Steve Scherf et al.
# Submitted via: EasyCDDAExtractor 4.6.0.1
#
DISCID=f8108313
DTITLE=Emmylou Harris - Selection of Portraits
DYEAR=1980
DGENRE=Country
TTITLE0=Boulder To Birmingham
TTITLE1=Love Hurts ( and Gram Parsons)
TTITLE2=The Angels Rejoiced Last Night ( and Gram Parsons)
TTITLE3=You're Still On My Mind
TTITLE4=Sweet Dreams
TTITLE5=Luxury Liner
TTITLE6=Evangeline ( and The Band)
TTITLE7=Beneath Still Waters
TTITLE8=And I Love You So
TTITLE9=Dimming Of The Day
TTITLE10=Heaven Ain't Ready For You Yet
TTITLE11=That Lovin' You Feelin' Again
TTITLE12=Love Is
TTITLE13=To Know Him Is To Love Him
TTITLE14=Gulf Coast Highway
TTITLE15=West Texas Waltz
TTITLE16=Casey's Last Ride
TTITLE17=Hard Times
TTITLE18=Walls Of Time
EXTD=
EXTT0=
EXTT1=
EXTT2=
EXTT3=
EXTT4=
EXTT5=
EXTT6=
EXTT7=
EXTT8=
EXTT9=
EXTT10=
EXTT11=
EXTT12=
EXTT13=
EXTT14=
EXTT15=
EXTT16=
EXTT17=
EXTT18=
PLAYORDER=
